REM GENRE Jazz
REM DATE 1963
REM DISCID 2009AE04
REM COMMENT "ExactAudioCopy v0.99pb4"
PERFORMER "Grachan Moncur III"
TITLE "Evolution"
FILE "01 - Air Raid.wav" WAVE
  TRACK 01 AUDIO
    TITLE "Air Raid"
    PERFORMER "Grachan Moncur III"
    INDEX 01 00:00:00
  TRACK 02 AUDIO
    TITLE "Evolution"
    PERFORMER "Grachan Moncur III"
    INDEX 00 09:15:63
FILE "02 - Evolution.wav" WAVE
    INDEX 01 00:00:00
  TRACK 03 AUDIO
    TITLE "The Coaster"
    PERFORMER "Grachan Moncur III"
    INDEX 00 12:20:06
FILE "03 - The Coaster.wav" WAVE
    INDEX 01 00:00:00
  TRACK 04 AUDIO
    TITLE "Monk In Wonderland"
    PERFORMER "Grachan Moncur III"
    INDEX 00 11:36:26
FILE "04 - Monk In Wonderland.wav" WAVE
    INDEX 01 00:00:00
